<?xml version="1.0" encoding="utf-8"?>
<!-- Generator: Adobe Illustrator 21.0.1, SVG Export Plug-In . SVG Version: 6.00 Build 0)  -->
<svg version="1.1" id="Слой_1" xmlns="http://www.w3.org/2000/svg" xmlns:xlink="http://www.w3.org/1999/xlink" x="0px" y="0px"
	 viewBox="0 0 480 480" style="enable-background:new 0 0 480 480;" xml:space="preserve" fill="#ffffff">
<g id="Calendar">
	<path d="M440,48h-40V32c0-17.7-14.3-32-32-32s-32,14.3-32,32v16h-64V32c0-17.7-14.3-32-32-32s-32,14.3-32,32v16h-64V32
		c0-17.7-14.3-32-32-32S80,14.3,80,32v16H40C17.9,48,0,65.9,0,88v320c0,22.1,17.9,40,40,40h224c4.4,0,8-3.6,8-8s-3.6-8-8-8H40
		c-13.2,0-24-10.8-24-24V160h448v136c0,4.4,3.6,8,8,8s8-3.6,8-8V88C480,65.9,462.1,48,440,48z M352,32c0-8.8,7.2-16,16-16
		s16,7.2,16,16v48c0,8.8-7.2,16-16,16s-16-7.2-16-16V32z M224,32c0-8.8,7.2-16,16-16c8.8,0,16,7.2,16,16v48c0,8.8-7.2,16-16,16
		c-8.8,0-16-7.2-16-16V32z M96,32c0-8.8,7.2-16,16-16s16,7.2,16,16v48c0,8.8-7.2,16-16,16s-16-7.2-16-16V32z M464,144H16V88
		c0-13.2,10.8-24,24-24h40v16c0,17.7,14.3,32,32,32s32-14.3,32-32V64h64v16c0,17.7,14.3,32,32,32s32-14.3,32-32V64h64v16
		c0,17.7,14.3,32,32,32s32-14.3,32-32V64h40c13.2,0,24,10.8,24,24V144z"/>
	<path d="M224,216c0-8.8-7.2-16-16-16h-32c-8.8,0-16,7.2-16,16v24c0,8.8,7.2,16,16,16h32c8.8,0,16-7.2,16-16V216z M176,240v-24h32
		v24H176z"/>
	<path d="M128,216c0-8.8-7.2-16-16-16H80c-8.8,0-16,7.2-16,16v24c0,8.8,7.2,16,16,16h32c8.8,0,16-7.2,16-16V216z M80,240v-24h32v24
		H80z"/>
	<path d="M400,256c8.8,0,16-7.2,16-16v-24c0-8.8-7.2-16-16-16h-32c-8.8,0-16,7.2-16,16v24c0,8.8,7.2,16,16,16H400z M368,216h32v24
		h-32V216z"/>
	<path d="M224,288c0-8.8-7.2-16-16-16h-32c-8.8,0-16,7.2-16,16v24c0,8.8,7.2,16,16,16h32c8.8,0,16-7.2,16-16V288z M176,312v-24h32
		v24H176z"/>
	<path d="M128,288c0-8.8-7.2-16-16-16H80c-8.8,0-16,7.2-16,16v24c0,8.8,7.2,16,16,16h32c8.8,0,16-7.2,16-16V288z M80,312v-24h32v24
		H80z"/>
	<path d="M208,344h-32c-8.8,0-16,7.2-16,16v24c0,8.8,7.2,16,16,16h32c8.8,0,16-7.2,16-16v-24C224,351.2,216.8,344,208,344z M176,384
		v-24h32v24H176z"/>
	<path d="M272,256h32c8.8,0,16-7.2,16-16v-24c0-8.8-7.2-16-16-16h-32c-8.8,0-16,7.2-16,16v24C256,248.8,263.2,256,272,256z M272,216
		h32v24h-32V216z"/>
	<path d="M256,312c0,8.8,7.2,16,16,16c4.4,0,8-3.6,8-8s-3.6-8-8-8v-24h32c4.4,0,8-3.6,8-8s-3.6-8-8-8h-32c-8.8,0-16,7.2-16,16V312z"
		/>
	<path d="M112,344H80c-8.8,0-16,7.2-16,16v24c0,8.8,7.2,16,16,16h32c8.8,0,16-7.2,16-16v-24C128,351.2,120.8,344,112,344z M80,384
		v-24h32v24H80z"/>
	<path d="M376,272c-57.4,0-104,46.6-104,104s46.6,104,104,104s104-46.6,104-104C479.9,318.6,433.4,272.1,376,272z M376,464
		c-48.6,0-88-39.4-88-88s39.4-88,88-88s88,39.4,88,88C463.9,424.6,424.6,463.9,376,464z"/>
	<path d="M422.2,342.5L360,404.7l-28.3-28.3c-3.2-3.1-8.2-3-11.3,0.2c-3,3.1-3,8,0,11.1l33.9,33.9c3.1,3.1,8.2,3.1,11.3,0l67.9-67.9
		c3.1-3.2,3-8.2-0.2-11.3C430.2,339.5,425.3,339.5,422.2,342.5z"/>
</g>
</svg>
