<?xml version="1.0" encoding="utf-8"?>
<!-- Generator: Adobe Illustrator 21.0.1, SVG Export Plug-In . SVG Version: 6.00 Build 0)  -->
<svg version="1.1" id="_x31_" xmlns="http://www.w3.org/2000/svg" xmlns:xlink="http://www.w3.org/1999/xlink" x="0px" y="0px"
	 viewBox="0 0 469.3 512" style="enable-background:new 0 0 469.3 512;" xml:space="preserve">
<path d="M416,512H160c-29.4,0-53.3-23.9-53.3-53.3v-320c0-29.4,23.9-53.3,53.3-53.3h256c29.4,0,53.3,23.9,53.3,53.3v320
	C469.3,488.1,445.4,512,416,512z M160,106.7c-17.6,0-32,14.4-32,32v320c0,17.6,14.4,32,32,32h256c17.6,0,32-14.4,32-32v-320
	c0-17.6-14.4-32-32-32H160z"/>
<path d="M74.7,448H53.3C23.9,448,0,424.1,0,394.7V53.3C0,23.9,23.9,0,53.3,0h256c29.4,0,53.3,23.9,53.3,53.3
	c0,5.9-4.8,10.7-10.7,10.7c-5.9,0-10.7-4.8-10.7-10.7c0-17.6-14.4-32-32-32h-256c-17.6,0-32,14.4-32,32v341.3c0,17.6,14.4,32,32,32
	h21.3c5.9,0,10.7,4.8,10.7,10.7S80.6,448,74.7,448z"/>
<path d="M373.3,362.7H202.7c-5.9,0-10.7-4.8-10.7-10.7c0-5.9,4.8-10.7,10.7-10.7h170.7c5.9,0,10.7,4.8,10.7,10.7
	C384,357.9,379.2,362.7,373.3,362.7z"/>
<path d="M373.3,448H202.7c-5.9,0-10.7-4.8-10.7-10.7s4.8-10.7,10.7-10.7h170.7c5.9,0,10.7,4.8,10.7,10.7S379.2,448,373.3,448z"/>
<path d="M373.3,277.3H202.7c-5.9,0-10.7-4.8-10.7-10.7s4.8-10.7,10.7-10.7h170.7c5.9,0,10.7,4.8,10.7,10.7S379.2,277.3,373.3,277.3z
	"/>
<path d="M373.3,192H202.7c-5.9,0-10.7-4.8-10.7-10.7s4.8-10.7,10.7-10.7h170.7c5.9,0,10.7,4.8,10.7,10.7S379.2,192,373.3,192z"/>
</svg>
