<?xml version="1.0" encoding="utf-8"?>
<!-- Generator: Adobe Illustrator 21.0.1, SVG Export Plug-In . SVG Version: 6.00 Build 0)  -->
<svg version="1.1" id="Слой_1" xmlns="http://www.w3.org/2000/svg" xmlns:xlink="http://www.w3.org/1999/xlink" x="0px" y="0px"
	 viewBox="0 0 579 591" style="enable-background:new 0 0 579 591;" xml:space="preserve">
<style type="text/css">
	.st0{fill:#ffffff;}
</style>
<g id="surface1">
	<path class="st0" d="M10.9,163.2c-0.2,1.2-0.3,2.4-0.4,3.5V191c0,10,6.3,19,15.6,22.5v35.8c0,12,9.5,21.8,21.4,22.4v206.6
		c-12,0.6-21.4,10.4-21.4,22.4v35.7c-9.4,3.6-15.6,12.6-15.6,22.7v23.8c0,4.4,3.6,8,8,8h541.6c4.4,0,8-3.6,8-8V559
		c0-10.1-6.2-19.1-15.6-22.7v-35.9c0-12-9.5-21.8-21.4-22.4V271.7c12-0.6,21.4-10.4,21.4-22.4v-35.8c9.4-3.5,15.6-12.5,15.6-22.5
		v-24.1c0-1.2-0.2-2.4-0.4-3.5c4,1.8,8.8,0,10.5-4.1c1.8-4,0-8.8-4.1-10.5L293,0.9c-2.3-1.2-5.2-1.2-7.5,0L4.3,148.6
		c-3.9,2.1-5.4,6.9-3.4,10.9C2.8,163,7.1,164.6,10.9,163.2z M42.2,227.5v-12.4h92.6v12.3L42.2,227.5z M248.4,271.7v206.6
		c-12,0.6-21.4,10.4-21.4,22.4v34.2h-76.2v-34.2c0-12-9.5-21.8-21.4-22.4V271.7c12-0.6,21.4-10.4,21.4-22.4v-34.2h76.1v34.2
		c0,12,9.4,21.9,21.4,22.4L248.4,271.7z M243.1,227.5v-12.4h92.6v12.3L243.1,227.5z M449.3,271.7v206.6c-12,0.6-21.4,10.4-21.4,22.4
		v34.2h-76.2v-34.2c0-12-9.5-21.8-21.4-22.4V271.7c12-0.6,21.4-10.4,21.4-22.4v-34.2h76.1v34.2c0,12,9.4,21.9,21.4,22.4L449.3,271.7
		z M444,227.5v-12.4h92.6v12.3L444,227.5z M536.6,522.6v12.3h-92.7v-12.3H536.6z M335.7,522.6v12.3H243v-12.3H335.7z M256.3,255.8
		h-7c-3.5,0-6.4-2.9-6.4-6.4v-5.8h92.6v5.8c0,3.5-2.9,6.4-6.4,6.4H256.3z M314.2,271.8v206.3h-49.8V271.8H314.2z M256.3,494.2h72.8
		c3.5,0,6.4,2.9,6.4,6.4v5.8H243v-5.8c0-3.5,2.9-6.4,6.4-6.4H256.3z M134.7,522.6v12.3H42.1v-12.3H134.7z M42.1,249.5v-6h92.6v5.8
		c0,3.5-2.9,6.4-6.4,6.4H48.3c-3.5-0.1-6.3-3-6.3-6.5V249.5z M113.3,272v206.2H63.5V271.8L113.3,272z M42.1,500.8
		c0-3.6,2.9-6.4,6.4-6.4h79.8c3.6,0,6.4,2.9,6.4,6.4v5.8H42.1V500.8z M552.1,559.3v15.7H26.5v-15.7c0-4.6,3.7-8.3,8.3-8.3h509
		c4.5,0,8.2,3.6,8.3,8.1V559.3z M536.5,500.8v5.8h-92.6v-5.8c0-3.6,2.9-6.4,6.4-6.4h79.9c3.4,0.1,6.2,2.8,6.3,6.3V500.8z
		 M465.3,478.3V271.8h49.8v206.3L465.3,478.3z M536.5,249.5c0,3.5-2.9,6.4-6.4,6.4h-79.7c-3.5,0-6.4-2.9-6.4-6.4v-6h92.6
		L536.5,249.5z M289.3,17l239.2,125.7H50.1L289.3,17z M26.5,166.9c0-4.4,3.6-8,8-8h509.6c4.4,0,8,3.6,8,8v24.3c0,4.4-3.6,8-8,8H34.5
		c-4.4,0-8-3.6-8-8V166.9z"/>
</g>
</svg>
