<svg version="1.1" id="Capa_1" xmlns="http://www.w3.org/2000/svg" xmlns:xlink="http://www.w3.org/1999/xlink" x="0px" y="0px"
	 viewBox="0 0 389.7 416" style="enable-background:new 0 0 389.7 416;" xml:space="preserve" fill="#ffffff">
	<rect x="106.9" y="279" width="19" height="137"/>
	<rect x="185.9" y="256" width="19" height="160"/>
	<rect x="28.9" y="365" width="18" height="51"/>
	<rect x="263.9" y="198" width="19" height="218"/>
	<rect x="342.9" y="146" width="18" height="270"/>
	<path d="M386.8,2.7c-2-1.7-4.5-2.7-7.2-2.7h-68.5c-5.5,0-10,4.5-10,10s4.5,10,10,10l44.2-0.1L247.2,128.1L209.3,90c-1.9-1.9-4.4-3-7.1-3.1c-2.7,0.1-5.2,1.2-7.1,3.1L3.1,282.2c-4,3.8-4.1,10.2-0.3,14.2s10.2,4.1,14.2,0.3c0.1-0.1,0.2-0.2,0.3-0.2l185-185l37.9,37.8c1.9,1.8,4.4,2.8,7.1,2.8c2.6,0,5.2-1,7.1-2.8L369.7,34l-0.1,44.1c0,5.5,4.4,9.9,9.9,9.9h0.1c5.5,0.1,9.9-4.3,10-9.8c0,0,0,0,0-0.1l0.1-68.4C389.7,7.1,388.6,4.6,386.8,2.7z"/>
</svg>
