<?xml version="1.0" encoding="utf-8"?>
<!-- Generator: Adobe Illustrator 21.0.1, SVG Export Plug-In . SVG Version: 6.00 Build 0)  -->
<svg version="1.1" id="Слой_1" xmlns="http://www.w3.org/2000/svg" xmlns:xlink="http://www.w3.org/1999/xlink" x="0px" y="0px"
	 viewBox="0 0 459.3 512" style="enable-background:new 0 0 459.3 512;" xml:space="preserve">
<g id="Page-1">
	<g id="_x30_03---Safe">
		<path id="Shape" d="M34.1,459.9v17.9c0,18.9,15.3,34.1,34.1,34.1h83.9c18.9,0,34.1-15.3,34.1-34.1v-17.1h85.3v17.1
			c0,18.9,15.3,34.1,34.1,34.1h83.9c18.9,0,34.1-15.3,34.1-34.1v-17.8c20.5-3.5,35.5-21.2,35.6-41.9V42.7
			c0-23.6-19.1-42.6-42.7-42.7h-374C19.1,0,0,19.1,0,42.7v34.1c0,4.7,3.8,8.5,8.5,8.5s8.5-3.8,8.5-8.5V42.7
			c0-14.1,11.5-25.6,25.6-25.6h374c14.1,0,25.6,11.5,25.6,25.6v375.5c0,14.1-11.5,25.6-25.6,25.6h-374c-14.1,0-25.6-11.5-25.6-25.6
			V119.5c0-4.7-3.8-8.5-8.5-8.5S0,114.8,0,119.5v298.7C0,438.4,14.3,455.9,34.1,459.9L34.1,459.9z M406.7,460.8v17.1
			c0,9.4-7.6,17.1-17.1,17.1h-83.9c-9.4,0-17.1-7.6-17.1-17.1v-17.1H406.7z M169.2,460.8v17.1c0,9.4-7.6,17.1-17.1,17.1H68.2
			c-9.4,0-17.1-7.6-17.1-17.1v-17.1H169.2z"/>
		<path id="Shape_1_" d="M66.8,290.1c-4.7,0-8.5,3.8-8.5,8.5v76.8c0,14.1,11.5,25.6,25.6,25.6H374c14.1,0,25.6-11.5,25.6-25.6v-8.5
			c14.1,0,25.6-11.5,25.6-25.6v-51.2c0-14.1-11.5-25.6-25.6-25.6v-68.3c14.1,0,25.6-11.5,25.6-25.6v-51.2
			c0-14.1-11.5-25.6-25.6-25.6v-8.5c0-14.1-11.5-25.6-25.6-25.6H83.9c-14.1,0-25.6,11.5-25.6,25.6V256c0,4.7,3.8,8.5,8.5,8.5
			s8.5-3.8,8.5-8.5V85.3c0-4.7,3.8-8.5,8.5-8.5H374c4.7,0,8.5,3.8,8.5,8.5v8.5c-14.1,0-25.6,11.5-25.6,25.6v51.2
			c0,14.1,11.5,25.6,25.6,25.6v68.3c-14.1,0-25.6,11.5-25.6,25.6v51.2c0,14.1,11.5,25.6,25.6,25.6v8.5c0,4.7-3.8,8.5-8.5,8.5H83.9
			c-4.7,0-8.5-3.8-8.5-8.5v-76.8C75.3,294,71.5,290.1,66.8,290.1z M374,170.7v-51.2c0-4.7,3.8-8.5,8.5-8.5h17.1
			c4.7,0,8.5,3.8,8.5,8.5v51.2c0,4.7-3.8,8.5-8.5,8.5h-17.1C377.8,179.2,374,175.4,374,170.7z M374,341.3v-51.2
			c0-4.7,3.8-8.5,8.5-8.5h17.1c4.7,0,8.5,3.8,8.5,8.5v51.2c0,4.7-3.8,8.5-8.5,8.5h-17.1C377.8,349.9,374,346,374,341.3z"/>
		<path id="Shape_2_" d="M134.3,269.6c18.7,45.1,66.7,70.8,114.6,61.2s82.4-51.6,82.4-100.4s-34.5-90.9-82.4-100.4
			c-47.9-9.5-95.9,16.1-114.6,61.2C123.9,216.3,123.9,244.5,134.3,269.6L134.3,269.6z M188.6,155.2l3.1,7.5c1.1,2.9,3.7,4.9,6.8,5.4
			c3.1,0.4,6.1-0.8,8-3.3s2.2-5.8,1-8.6l-3.1-7.5c16-4.9,33.2-4.9,49.2,0l-3.1,7.5c-1.2,2.8-0.9,6.1,1,8.6c1.9,2.5,4.9,3.7,8,3.3
			c3.1-0.4,5.7-2.5,6.8-5.4l3.1-7.5c14.8,7.9,26.9,20,34.8,34.8l-7.5,3.1c-2.9,1.1-4.9,3.7-5.4,6.8c-0.4,3.1,0.8,6.1,3.3,8
			c2.5,1.9,5.8,2.2,8.6,1l7.5-3.1c4.9,16,4.9,33.2,0,49.2l-7.5-3.1c-2.8-1.2-6.1-0.9-8.6,1c-2.5,1.9-3.7,4.9-3.3,8s2.5,5.7,5.4,6.8
			l7.5,3.1c-7.9,14.8-20,26.9-34.8,34.8l-3.1-7.5c-1.1-2.9-3.7-4.9-6.8-5.4c-3.1-0.4-6.1,0.8-8,3.3c-1.9,2.5-2.2,5.8-1,8.6l3.1,7.5
			c-16,4.9-33.2,4.9-49.2,0l3.1-7.5c1.2-2.8,0.9-6.1-1-8.6c-1.9-2.5-4.9-3.7-8-3.3s-5.7,2.5-6.8,5.4l-3.1,7.5
			c-14.8-7.9-26.9-20-34.8-34.8l7.5-3.1c2.9-1.1,4.9-3.7,5.4-6.8c0.4-3.1-0.8-6.1-3.3-8c-2.5-1.9-5.8-2.2-8.6-1l-7.5,3.1
			c-4.9-16-4.9-33.2,0-49.2l7.5,3.1c2.8,1.2,6.1,0.9,8.6-1c2.5-1.9,3.7-4.9,3.3-8c-0.4-3.1-2.5-5.7-5.4-6.8l-7.5-3.1
			C161.7,175.2,173.8,163.1,188.6,155.2L188.6,155.2z"/>
		<path id="Shape_3_" d="M229,281.6c22.5,0,42.4-14.8,48.9-36.4c6.5-21.6-1.9-44.9-20.6-57.4s-43.5-11.3-60.9,3.1
			C179,205.2,173,229.2,181.6,250C189.6,269.2,208.3,281.6,229,281.6z M215.9,198.8c17.4-7.2,37.4,1.1,44.6,18.5
			s-1.1,37.4-18.5,44.6c-17.4,7.2-37.4-1-44.6-18.5c-3.5-8.4-3.5-17.8,0-26.2C200.8,208.9,207.5,202.3,215.9,198.8z"/>
		<path id="Shape_4_" d="M143.6,93.9h-42.7c-4.7,0-8.5,3.8-8.5,8.5v42.7c0,4.7,3.8,8.5,8.5,8.5c4.7,0,8.5-3.8,8.5-8.5v-34.1h34.1
			c4.7,0,8.5-3.8,8.5-8.5C152.1,97.7,148.3,93.9,143.6,93.9z"/>
	</g>
</g>
</svg>
